<svg width="7" height="7" viewBox="0 0 7 7" fill="none" xmlns="http://www.w3.org/2000/svg">
<g clip-path="url(#clip0_320_587)">
<path fill-rule="evenodd" clip-rule="evenodd" d="M6.34964 1.10777C6.41766 1.17579 6.4407 1.27676 6.40893 1.36755L4.65613 6.37555C4.62221 6.47245 4.53258 6.53884 4.42999 6.54302C4.32741 6.54721 4.23266 6.48835 4.19097 6.39453L3.22848 4.22893L1.06289 3.26645C0.969069 3.22475 0.910209 3.13001 0.914394 3.02742C0.918579 2.92484 0.984961 2.8352 1.08187 2.80129L6.08986 1.04849C6.18066 1.01671 6.28163 1.03975 6.34964 1.10777ZM3.71685 4.09468L4.39209 5.61398L5.57376 2.23777L3.71685 4.09468ZM5.21964 1.88365L1.84344 3.06533L3.36273 3.74057L5.21964 1.88365Z" fill="white"/>
</g>
<defs>
<clipPath id="clip0_320_587">
<rect width="6.0096" height="6.0096" fill="white" transform="translate(0.663818 0.784058)"/>
</clipPath>
</defs>
</svg>
